<?xml version="1.0" encoding="UTF-8"?>
<svg width="512px" height="512px" viewBox="0 0 512 512" version="1.1" xmlns="http://www.w3.org/2000/svg" xmlns:xlink="http://www.w3.org/1999/xlink">
    <title>trmnl--fav-icon</title>
    <g id="Page-1" stroke="none" stroke-width="1" fill="none" fill-rule="evenodd">
        <g id="trmnl--fav-icon">
            <path d="M101.273465,0 L410.726535,7.25467311e-15 C445.941525,-4.215174e-15 458.711331,3.66661164 471.585405,10.5517418 C484.459479,17.436872 494.563128,27.5405206 501.448258,40.4145947 C508.333388,53.2886688 512,66.0584752 512,101.273465 L512,410.726535 C512,445.941525 508.333388,458.711331 501.448258,471.585405 C494.563128,484.459479 484.459479,494.563128 471.585405,501.448258 C458.711331,508.333388 445.941525,512 410.726535,512 L101.273465,512 C66.0584752,512 53.2886688,508.333388 40.4145947,501.448258 C27.5405206,494.563128 17.436872,484.459479 10.5517418,471.585405 C3.66661164,458.711331 0,445.941525 0,410.726535 L0,101.273465 C0,66.0584752 3.66661164,53.2886688 10.5517418,40.4145947 C17.436872,27.5405206 27.5405206,17.436872 40.4145947,10.5517418 C53.2886688,3.66661164 66.0584752,0 101.273465,0 Z" id="Rectangle" fill="#F86527"></path>
            <polygon id="Path" fill="#FFFFFF" points="173.227881 101 266 135.905584 248.772355 182 156 147.094416"></polygon>
            <polygon id="Path" fill="#FFFFFF" points="321.477308 90 352 184.742164 305.523867 200 275 105.258073"></polygon>
            <polygon id="Path" fill="#FFFFFF" points="423 199.08638 368.734902 282 328 254.91256 382.266271 172"></polygon>
            <polygon id="Path" fill="#FFFFFF" points="401 347.057326 302.406877 356 298 306.942674 396.593123 298"></polygon>
            <polygon id="Path" fill="#FFFFFF" points="272.526812 422 204 350.073199 239.474369 316 308 387.926801"></polygon>
            <polygon id="Path" fill="#FFFFFF" points="133 367.412771 146.295792 269 195 275.587229 181.704208 374"></polygon>
            <polygon id="Path" fill="#FFFFFF" points="89 224.865546 173.872813 174 199 216.133279 114.126739 267"></polygon>
        </g>
    </g>
</svg>